<svg width="18" height="18" viewBox="0 0 18 18" fill="none" xmlns="http://www.w3.org/2000/svg">
<circle cx="9" cy="9" r="9" transform="rotate(-90 9 9)" fill="#00B9A6"/>
<g clip-path="url(#clip0_68_14)">
<path d="M6.1627 9.3912H7.47809V14.8065C7.47809 14.9134 7.56472 15 7.67164 15H9.90193C10.0088 15 10.0955 14.9134 10.0955 14.8065V9.41671H11.6076C11.706 9.41671 11.7887 9.34293 11.7999 9.24526L12.0296 7.25164C12.0359 7.19679 12.0185 7.14186 11.9818 7.10071C11.9451 7.05952 11.8925 7.03595 11.8373 7.03595H10.0956V5.78625C10.0956 5.40952 10.2984 5.21849 10.6985 5.21849C10.7555 5.21849 11.8373 5.21849 11.8373 5.21849C11.9443 5.21849 12.0309 5.13182 12.0309 5.02494V3.19498C12.0309 3.08806 11.9443 3.00143 11.8373 3.00143H10.2679C10.2568 3.00089 10.2322 3 10.196 3C9.92365 3 8.97708 3.05346 8.22937 3.74133C7.4009 4.5036 7.51606 5.4163 7.54359 5.57454V7.03591H6.1627C6.05578 7.03591 5.96915 7.12254 5.96915 7.22946V9.19761C5.96915 9.30453 6.05578 9.3912 6.1627 9.3912Z" fill="white"/>
</g>
<defs>
<clipPath id="clip0_68_14">
<rect width="12" height="12" fill="white" transform="translate(3 3)"/>
</clipPath>
</defs>
</svg>
