<svg width="93" height="31" viewBox="0 0 93 31" fill="none" xmlns="http://www.w3.org/2000/svg">
<g clip-path="url(#clip0_4_44)">
<path d="M87.874 30.9188V25.8063H89.5827C90.2336 25.8063 90.6404 25.8063 90.8032 25.8874C91.1286 25.9686 91.3727 26.1309 91.5354 26.3743C91.6982 26.6178 91.8609 26.9424 91.8609 27.3482C91.8609 27.6728 91.7795 27.9162 91.6982 28.1597C91.6168 28.4031 91.4541 28.5654 91.2913 28.6466C91.1286 28.8089 90.9659 28.89 90.7218 28.89C90.4777 28.9712 90.1522 28.9712 89.664 28.9712H89.0131V30.9188H87.874ZM88.9318 26.6178V28.0785H89.5013C89.9081 28.0785 90.1522 28.0785 90.315 27.9974C90.4777 27.9162 90.5591 27.8351 90.6404 27.7539C90.7218 27.6728 90.7218 27.5105 90.7218 27.3482C90.7218 27.1859 90.6404 27.0236 90.5591 26.8612C90.4777 26.7801 90.315 26.6989 90.1522 26.6178H89.42H88.9318Z" fill="#303C46"/>
<path d="M76.3202 25.8063H77.2966V28.5654V29.4581C77.378 29.7016 77.4593 29.8639 77.6221 29.945C77.7848 30.1073 78.0289 30.1073 78.273 30.1073C78.5984 30.1073 78.7612 30.0262 78.9239 29.945C79.0866 29.8639 79.168 29.7016 79.168 29.5393C79.168 29.377 79.2494 29.0523 79.2494 28.6466V25.8063H80.3071V28.4843C80.3071 29.1335 80.3071 29.5393 80.2257 29.7827C80.1444 30.0262 80.063 30.2696 79.9003 30.4319C79.7375 30.5942 79.5748 30.7565 79.3307 30.8377C79.0866 30.9188 78.7612 31 78.3543 31C77.8662 31 77.4593 30.9188 77.2152 30.8377C76.9711 30.7565 76.727 30.5942 76.6457 30.4319C76.5643 30.2696 76.4829 30.0262 76.4016 29.7827C76.3202 29.4581 76.3202 29.0523 76.3202 28.4843V25.8063Z" fill="#303C46"/>
<path d="M63.5459 28.4031C63.5459 27.9162 63.6273 27.4293 63.79 27.1047C63.8714 26.8613 64.0341 26.6178 64.2782 26.3743C64.4409 26.1309 64.685 26.0497 64.9291 25.8874C65.2546 25.7251 65.58 25.644 66.0682 25.644C66.8005 25.644 67.4514 25.8874 67.8583 26.3743C68.3465 26.8613 68.5092 27.5105 68.5092 28.322C68.5092 29.1335 68.2651 29.7827 67.8583 30.2696C67.3701 30.7565 66.8005 31 66.0682 31C65.336 31 64.685 30.7565 64.2782 30.2696C63.79 29.8639 63.5459 29.2147 63.5459 28.4031ZM64.6037 28.322C64.6037 28.8901 64.7664 29.377 65.0105 29.6204C65.2546 29.945 65.6614 30.1073 66.0682 30.1073C66.4751 30.1073 66.8005 29.945 67.126 29.6204C67.3701 29.2958 67.5328 28.8901 67.5328 28.2408C67.5328 27.6728 67.3701 27.1859 67.126 26.9424C66.8819 26.6178 66.5564 26.5367 66.0682 26.5367C65.6614 26.5367 65.2546 26.699 65.0105 26.9424C64.7664 27.267 64.6037 27.7539 64.6037 28.322Z" fill="#303C46"/>
<path d="M51.748 30.9188V25.8063H53.9449C54.5144 25.8063 54.9213 25.8874 55.1654 25.9686C55.4095 26.0497 55.6535 26.212 55.7349 26.4555C55.8976 26.6989 55.979 26.9424 55.979 27.267C55.979 27.6728 55.8976 27.9974 55.6535 28.2408C55.4095 28.4843 55.084 28.6466 54.5958 28.7277C54.8399 28.89 55.0026 28.9712 55.1654 29.1335C55.3281 29.2958 55.4908 29.5393 55.7349 29.945L56.3858 30.9188H55.1654L54.4331 29.7827C54.189 29.377 53.9449 29.1335 53.8635 29.0523C53.7822 28.9712 53.7008 28.89 53.5381 28.8089C53.4567 28.8089 53.294 28.7277 53.0499 28.7277H52.8058V30.8377H51.748V30.9188ZM52.8058 27.9162H53.5381C54.0263 27.9162 54.3517 27.9162 54.4331 27.8351C54.5958 27.7539 54.6772 27.7539 54.7585 27.5916C54.8399 27.5105 54.8399 27.3482 54.8399 27.1859C54.8399 27.0236 54.7585 26.8612 54.6772 26.7801C54.5958 26.6989 54.4331 26.6178 54.2703 26.6178H53.5381H52.7244V27.9162H52.8058Z" fill="#303C46"/>
<path d="M41.8215 29.0524V28.1597H44.0997V30.1885C43.8556 30.4319 43.5302 30.5942 43.1234 30.7565C42.7165 30.9189 42.3097 31 41.9029 31C41.3333 31 40.9265 30.9188 40.5197 30.6754C40.1129 30.4319 39.7874 30.1073 39.6247 29.7016C39.4619 29.2958 39.2992 28.8089 39.2992 28.322C39.2992 27.7539 39.3806 27.3482 39.6247 26.8613C39.8688 26.4555 40.1942 26.1309 40.601 25.8874C40.9265 25.7251 41.3333 25.644 41.8215 25.644C42.4724 25.644 42.9606 25.8063 43.2861 26.0497C43.6115 26.2932 43.8556 26.699 44.0184 27.1859L42.9606 27.3482C42.8793 27.1047 42.7165 26.8613 42.5538 26.7801C42.3911 26.6178 42.0656 26.5367 41.8215 26.5367C41.3333 26.5367 41.0079 26.699 40.7638 26.9424C40.5197 27.267 40.357 27.6728 40.357 28.2408C40.357 28.8901 40.5197 29.2958 40.7638 29.6204C41.0079 29.945 41.4147 30.1073 41.8215 30.1073C42.0656 30.1073 42.2283 30.0262 42.4724 29.945C42.7165 29.8639 42.8793 29.7827 43.042 29.6204V28.9712H41.8215V29.0524Z" fill="#303C46"/>
<path d="M3.90551 9.08902V11.6047H13.2625V14.6073H3.90551V20.3691H0V6.00525H13.7507V9.08902H3.90551Z" fill="#303C46"/>
<path d="M35.7192 13.2277C35.7192 14.445 35.4751 15.5811 35.0682 16.4738C34.5801 17.4476 33.9291 18.178 33.1155 18.8272C32.3018 19.4764 31.2441 19.9633 30.0236 20.2879C28.8032 20.6125 27.5013 20.7748 25.9554 20.7748C24.4908 20.7748 23.1076 20.6125 21.8871 20.2879C20.6667 19.9633 19.6089 19.4764 18.7953 18.8272C17.9816 18.178 17.2493 17.3665 16.8425 16.4738C16.3543 15.5 16.1102 14.445 16.1102 13.2277C16.1102 12.0104 16.3543 10.8743 16.8425 9.98165C17.3307 9.00783 17.9816 8.27746 18.7953 7.62825C19.6089 6.97903 20.6667 6.49212 21.8871 6.16751C23.1076 5.84291 24.4908 5.6806 25.9554 5.6806C27.4199 5.6806 28.8032 5.84291 30.0236 6.16751C31.2441 6.49212 32.2205 6.97903 33.1155 7.62825C33.9291 8.27746 34.5801 9.08898 35.0682 9.98165C35.4751 10.8743 35.7192 12.0104 35.7192 13.2277ZM31.8136 13.2277C31.8136 12.6597 31.7323 12.1727 31.5696 11.6047C31.4068 11.0366 31.0814 10.6309 30.6745 10.144C30.2677 9.73819 29.6168 9.33244 28.8845 9.08898C28.1522 8.84552 27.1759 8.68322 26.0367 8.68322C25.2231 8.68322 24.5722 8.76437 24.0026 8.84552C23.4331 9.00783 22.8635 9.17013 22.4567 9.33244C22.0499 9.57589 21.643 9.81935 21.399 10.0628C21.0735 10.3874 20.9108 10.6309 20.6667 10.9555C20.5039 11.2801 20.3412 11.6047 20.2598 12.0104C20.1785 12.3351 20.1785 12.7408 20.1785 13.0654C20.1785 13.39 20.1785 13.7958 20.2598 14.1204C20.3412 14.445 20.4226 14.8508 20.6667 15.1754C20.8294 15.5 21.0735 15.8246 21.399 16.068C21.7244 16.3926 22.0499 16.6361 22.4567 16.7984C22.8635 17.0419 23.4331 17.2042 24.0026 17.2853C24.5722 17.4476 25.3045 17.4476 26.0367 17.4476C27.1759 17.4476 28.1522 17.2853 28.8845 17.0419C29.6168 16.7984 30.2677 16.3926 30.6745 15.9869C31.0814 15.5811 31.4068 15.0942 31.5696 14.5262C31.7323 14.2827 31.8136 13.7146 31.8136 13.2277Z" fill="#303C46"/>
<path d="M43.2047 20.3691H39.2992V6.00525H49.063C50.1207 6.00525 51.0157 6.0864 51.748 6.32986C52.4803 6.57331 53.0499 6.81677 53.5381 7.22253C54.0262 7.62829 54.3517 8.1152 54.5144 8.68326C54.7585 9.25132 54.8399 9.90054 54.8399 10.5498C54.8399 11.1178 54.7585 11.6859 54.5958 12.1728C54.4331 12.6597 54.189 12.9843 53.8635 13.3089C53.5381 13.6335 53.2126 13.877 52.8871 14.1204C52.4803 14.3639 52.0735 14.5262 51.6667 14.6885L56.3858 20.3691H51.8294L47.4357 15.0943H43.2047V20.3691ZM50.853 10.5498C50.853 10.3063 50.853 10.0628 50.7717 9.81939C50.6903 9.65708 50.6089 9.49478 50.3648 9.33247C50.2021 9.17017 49.958 9.08902 49.6325 9.08902C49.3071 9.00787 48.9816 9.00787 48.4934 9.00787H43.1234V12.0916H48.4934C48.9816 12.0916 49.3071 12.0916 49.6325 12.0105C49.958 11.9293 50.2021 11.8482 50.3648 11.767C50.5276 11.6047 50.6903 11.5236 50.7717 11.2801C50.853 11.0367 50.853 10.7932 50.853 10.5498Z" fill="#303C46"/>
<path d="M67.2073 9.17017V20.4503H63.3018V9.17017H57.1995V6.00525H73.3097V9.17017H67.2073Z" fill="#303C46"/>
<path d="M93 13.7958C93 12.4974 92.7559 11.2801 92.3491 10.3063C91.9423 9.33244 91.2913 8.43977 90.5591 7.79055C89.7454 7.06018 88.8504 6.57327 87.7927 6.24867C86.6536 5.84291 85.4331 5.6806 84.1312 5.6806C82.748 5.6806 81.4462 5.84291 80.3071 6.24867C79.168 6.65442 78.1916 7.14134 77.378 7.8717C76.5643 8.52092 75.9134 9.33244 75.5066 10.3063C75.0997 11.1989 74.8557 12.2539 74.8557 13.3089C74.8557 14.445 75.0997 15.5 75.5066 16.4738C75.9134 17.3665 76.5643 18.178 77.4593 18.8272C78.273 19.4764 79.3307 19.9633 80.5512 20.2879C81.7717 20.6125 83.1549 20.7748 84.7822 20.7748C86.0026 20.7748 87.2231 20.6937 88.3622 20.5314C89.5013 20.3691 90.7218 20.0445 91.9423 19.7199V16.3926C91.6168 16.5549 91.2913 16.7173 90.8032 16.8796C90.315 17.0419 89.8268 17.2042 89.1759 17.3665C88.6063 17.5288 87.9554 17.6099 87.2231 17.6911C86.5722 17.7722 85.8399 17.8534 85.1076 17.8534C84.1312 17.8534 83.2362 17.7722 82.5039 17.6099C81.7717 17.4476 81.2021 17.2853 80.6326 16.9607C80.1444 16.7173 79.7375 16.3926 79.4121 15.9869C79.0866 15.5811 78.9239 15.1754 78.7612 14.7696H93V13.7958ZM78.7612 11.9293C78.8425 11.6047 79.0053 11.2801 79.2494 10.8743C79.4934 10.4686 79.8189 10.144 80.2257 9.81935C80.6326 9.49474 81.2021 9.25128 81.853 9.00783C82.5039 8.76437 83.2362 8.68322 84.1312 8.68322C85.0263 8.68322 85.8399 8.76437 86.4908 9.00783C87.1417 9.17013 87.6299 9.49474 88.0368 9.73819C88.4436 10.0628 88.6877 10.3874 88.8504 10.7932C89.0131 11.1989 89.1759 11.5235 89.1759 11.9293H78.7612Z" fill="#303C46"/>
<path d="M88.1995 2.75916L82.748 4.70681L81.7717 2.92147L86.8163 0L88.1995 2.75916Z" fill="#27AAE1"/>
</g>
<defs>
<clipPath id="clip0_4_44">
<rect width="93" height="31" fill="white"/>
</clipPath>
</defs>
</svg>
