<svg width="18" height="18" viewBox="0 0 18 18" fill="none" xmlns="http://www.w3.org/2000/svg">
<circle cx="9" cy="9" r="9" transform="rotate(-90 9 9)" fill="#00B9A6"/>
<g clip-path="url(#clip0_68_7)">
<path d="M7.09497 6.89539H5.2882C5.20802 6.89539 5.14304 6.96039 5.14304 7.04055V12.8449C5.14304 12.9251 5.20802 12.9901 5.2882 12.9901H7.09497C7.17516 12.9901 7.24013 12.9251 7.24013 12.8449V7.04055C7.24013 6.96039 7.17516 6.89539 7.09497 6.89539Z" fill="white"/>
<path d="M6.19224 4.0099C5.53483 4.0099 5 4.54415 5 5.20083C5 5.8578 5.53483 6.39226 6.19224 6.39226C6.84912 6.39226 7.38352 5.85778 7.38352 5.20083C7.38355 4.54415 6.84912 4.0099 6.19224 4.0099Z" fill="white"/>
<path d="M11.6906 6.75113C10.9649 6.75113 10.4285 7.06308 10.1031 7.41753V7.04055C10.1031 6.96039 10.0382 6.89539 9.95798 6.89539H8.22769C8.1475 6.89539 8.08253 6.96039 8.08253 7.04055V12.8449C8.08253 12.9251 8.1475 12.9901 8.22769 12.9901H10.0305C10.1107 12.9901 10.1757 12.9251 10.1757 12.8449V9.9731C10.1757 9.00537 10.4385 8.62835 11.1131 8.62835C11.8478 8.62835 11.9062 9.23275 11.9062 10.0229V12.8449C11.9062 12.9251 11.9712 12.9901 12.0514 12.9901H13.8548C13.935 12.9901 14 12.9251 14 12.8449V9.66115C14 8.22216 13.7256 6.75113 11.6906 6.75113Z" fill="white"/>
</g>
<defs>
<clipPath id="clip0_68_7">
<rect width="9" height="9" fill="white" transform="translate(5 4)"/>
</clipPath>
</defs>
</svg>
