<svg width="18" height="18" viewBox="0 0 18 18" fill="none" xmlns="http://www.w3.org/2000/svg">
<circle cx="9" cy="9" r="9" transform="rotate(-90 9 9)" fill="#00B9A6"/>
<g clip-path="url(#clip0_68_13)">
<path d="M14.7507 6.03637C14.5779 6.113 14.4002 6.17769 14.2187 6.23022C14.4336 5.98715 14.5975 5.70115 14.6975 5.38819C14.7199 5.31804 14.6967 5.24125 14.639 5.19536C14.5814 5.14945 14.5014 5.14395 14.438 5.18153C14.0525 5.41019 13.6365 5.57452 13.2004 5.6706C12.7611 5.24132 12.1644 4.997 11.5475 4.997C10.2455 4.997 9.18614 6.0563 9.18614 7.35834C9.18614 7.46088 9.19263 7.56287 9.20547 7.66344C7.58973 7.52158 6.08759 6.72741 5.05608 5.46209C5.01932 5.417 4.96269 5.39268 4.90471 5.39734C4.8467 5.40187 4.79456 5.43459 4.76525 5.48489C4.55604 5.84387 4.44544 6.25445 4.44544 6.67222C4.44544 7.24121 4.64857 7.78104 5.00742 8.20289C4.8983 8.16509 4.79243 8.11787 4.69137 8.06178C4.63712 8.03157 4.5709 8.03204 4.517 8.06294C4.46307 8.09385 4.42926 8.15068 4.42782 8.21281C4.42756 8.22327 4.42756 8.23374 4.42756 8.24435C4.42756 9.09365 4.88466 9.85829 5.58352 10.275C5.52347 10.2691 5.46349 10.2603 5.40387 10.249C5.3424 10.2372 5.27922 10.2588 5.23778 10.3056C5.19627 10.3525 5.18252 10.4178 5.20166 10.4774C5.46033 11.285 6.12632 11.879 6.93145 12.0601C6.26367 12.4784 5.50003 12.6975 4.69839 12.6975C4.53111 12.6975 4.36289 12.6876 4.19826 12.6682C4.11647 12.6584 4.03827 12.7067 4.0104 12.7845C3.98253 12.8623 4.01208 12.9491 4.08164 12.9937C5.11149 13.654 6.30228 14.003 7.52523 14.003C9.92939 14.003 11.4334 12.8693 12.2717 11.9182C13.317 10.7323 13.9165 9.16265 13.9165 7.6117C13.9165 7.54691 13.9156 7.48149 13.9136 7.41626C14.326 7.10553 14.6811 6.72947 14.97 6.29725C15.0139 6.23162 15.0092 6.14484 14.9583 6.08443C14.9076 6.02391 14.8229 6.00436 14.7507 6.03637Z" fill="white"/>
</g>
<defs>
<clipPath id="clip0_68_13">
<rect width="11" height="11" fill="white" transform="translate(4 4)"/>
</clipPath>
</defs>
</svg>
